<svg 
xmlns="http://www.w3.org/2000/svg" 
version="1.1" 
xmlns:xlink="http://www.w3.org/1999/xlink" 
xmlns:svgjs="http://svgjs.dev/svgjs" 
width="2000" height="1500" viewBox="0 0 2000 1500">
<rect width="2000" height="1500" fill="#ffffff">
</rect>
<g transform="matrix(0.75,0,0,0.75,249.090909090909,282.7536437246964)">
<svg 
viewBox="0 0 396 247" 
data-background-color="#ffffff" 
preserveAspectRatio="xMidYMid meet" 
height="1247" width="2000" 
xmlns="http://www.w3.org/2000/svg" 
xmlns:xlink="http://www.w3.org/1999/xlink">
<g 
id="tight-bounds" 
transform="matrix(1,0,0,1,0.2400000000000091,-0.09999999999999432)">
<svg viewBox="0 0 395.52 247.2" height="247.2" width="395.52">
<g>
<svg>
</svg>
</g>
<g>
<svg 
viewBox="0 0 395.52 247.2" 
height="247.2" 
width="395.52">
<g 
transform="matrix(1,0,0,1,75.54432,84.76584920292976)">
<svg 
viewBox="0 0 244.43135999999998 77.66830159414046" 
height="77.66830159414046" width="244.43135999999998">
<g>
<svg 
viewBox="0 0 244.43135999999998 77.66830159414046" 
height="77.66830159414046" width="244.43135999999998">
<g>
<svg 
viewBox="0 0 244.43135999999998 77.66830159414046" 
height="77.66830159414046" width="244.43135999999998">
<g>
<svg 
viewBox="0 0 244.43135999999998 77.66830159414046" 
height="77.66830159414046" width="244.43135999999998">
<g id="textblocktransform">
<svg viewBox="0 0 244.43135999999998 77.66830159414046" 
height="77.66830159414046" width="244.43135999999998" 
id="textblock">
<g><svg viewBox="0 0 244.43135999999998 77.66830159414046" height="77.66830159414046" width="244.43135999999998"><g transform="matrix(1,0,0,1,0,0)"><svg width="244.43135999999998" viewBox="1.49 -36.01 113.32000000000001 36.01" height="77.66830159414046" data-palette-color="#6b7280"><path d="M14.99-35.01L20-35.01 33.5 0 28.49 0 25.39-8.06 9.59-8.06 6.49 0 1.49 0 14.99-35.01ZM17.5-28.49L11.5-13.06 23.46-13.06 17.5-28.49ZM39.01-4.81L39.01-21.19Q39.01-22.19 39.39-23.07 39.77-23.95 40.41-24.6 41.06-25.24 41.94-25.62 42.82-26 43.8-26L43.8-26 57.2-26 57.2-36.01 62.01-36.01 62.01 0 57.2 0 57.2-4.39Q57.13-3.49 56.71-2.69 56.3-1.88 55.65-1.28 55-0.68 54.17-0.34 53.34 0 52.41 0L52.41 0 43.8 0Q42.82 0 41.94-0.38 41.06-0.76 40.41-1.4 39.77-2.05 39.39-2.93 39.01-3.81 39.01-4.81L39.01-4.81ZM43.8-21.19L43.8-4.81 57.2-4.81 57.2-21.19 43.8-21.19ZM70.26-26L75.07-26 75.07 0 70.26 0 70.26-26ZM70.01-31.01L70.01-36.01 75.31-36.01 75.31-31.01 70.01-31.01ZM81.8-21.19L81.8-26 88.15-26 88.15-34.01 92.96-34.01 92.96-26 101.51-26 101.51-21.19 92.96-21.19 92.96-4.81 101.51-4.81 101.51 0 92.96 0Q91.98 0 91.11-0.38 90.23-0.76 89.57-1.4 88.91-2.05 88.53-2.93 88.15-3.81 88.15-4.81L88.15-4.81 88.15-21.19 81.8-21.19ZM109.76-26L114.57-26 114.57 0 109.76 0 109.76-26ZM109.51-31.01L109.51-36.01 114.81-36.01 114.81-31.01 109.51-31.01Z" opacity="1" transform="matrix(1,0,0,1,0,0)" fill="#6b7280" class="wordmark-text-0" data-fill-palette-color="primary" id="text-0"></path></svg></g></svg></g></svg></g></svg></g></svg></g></svg></g></svg></g><g><path d="M245.816 0c68.262 0 123.6 55.338 123.6 123.6 0 68.262-55.338 123.6-123.6 123.6-51.239 0-95.195-31.178-113.933-75.598h3.812c18.524 42.436 60.859 72.096 110.121 72.096 66.328 0 120.098-53.77 120.098-120.098 0-66.328-53.77-120.098-120.098-120.098-49.262 0-91.597 29.66-110.121 72.096l-3.812 0c18.738-44.42 62.694-75.598 113.933-75.598z" fill="#6b7280" stroke="transparent" data-fill-palette-color="tertiary"></path></g></svg></g><defs></defs></svg><rect width="395.52" height="247.2" fill="none" stroke="none" visibility="hidden"></rect></g></svg></g></svg>